<?xml version="1.0" encoding="UTF-8"?> <svg xmlns="http://www.w3.org/2000/svg" width="336.829" height="234.38" viewBox="0 0 336.829 234.38"><path fill="#FFFFFF" fill-rule="evenodd" clip-rule="evenodd" d="M332.347 153.008c-6.057-14.967-12.154-29.918-18.231-44.877-3.414-8.401-6.823-16.805-10.495-25.849-2.617 8.252-4.729 15.711-7.398 22.964-1.197 3.254-.981 5.852.313 8.977 6.625 15.993 13.531 31.9 19.35 48.191 8.191 22.938-4.746 45.985-28.355 51.893-23.851 5.968-46.728-5.748-56.348-29.018-17.232-41.69-34.4-83.407-51.492-125.155-.755-1.845-1.184-4.357-.568-6.147 6.73-19.574 19.131-32.978 40.613-35.786 27.465-3.591 55.122 18.097 53.671 50.369-.521 11.592-4.335 22.499-9.222 32.998-7.925 17.023-18.508 32.347-29.949 47.138-1.041 1.347-2.531 3.48-2.113 4.629 2.014 5.53 4.61 10.848 7.26 16.827 20.788-24.746 39.018-50.08 48.355-80.606 5.144-16.814 5.72-33.87-2.102-50.215C273.529 14.04 253.487.346 225.213.093c-26.615-.239-49.783 15.618-60.027 40.492-15.278 37.098-30.416 74.254-45.631 111.377-1.354 3.304-2.837 6.554-4.701 10.84-2.88-3.256-5.105-5.632-7.176-8.137C93.519 137.541 80.5 119.64 71.573 99.141c-5.766-13.237-9.821-26.838-7.473-41.64 5.331-33.609 45.506-51.067 73.43-31.628 4.961 3.454 9.093 8.1 13.667 12.249l8.653-17.002C147.085 7.948 131.7.567 113.084.028c-41.311-1.196-73.8 36.447-66.771 76.919 3.08 17.737 10.041 33.809 19.154 49.007 24.113 40.216 56.322 73.217 92.571 102.501 6.654 5.376 14.201 5.221 21.058-.23 6.515-5.178 12.819-10.629 19.068-16.127 5.692-5.009 11.186-10.242 17.16-15.738 1.202 1.973 2.053 3.35 2.885 4.737 17.997 29.994 52.877 41.36 84.929 27.301 26.916-11.808 41.676-44.581 29.209-75.39zm-127.66 28.575c-10.944 9.719-21.749 19.597-32.528 29.5-2.557 2.348-4.736 2.481-7.332.096-11.147-10.244-22.434-20.338-33.461-30.709-1.209-1.138-2.012-4.08-1.423-5.556 12.201-30.601 24.627-61.112 37.036-91.63.225-.555.765-.981 1.877-2.36 3.311 8.092 6.282 15.283 9.196 22.496 9.415 23.299 18.741 46.634 28.284 69.88 1.411 3.441 1.217 5.738-1.649 8.283zm-92.4 24.292c.719.918 1.134 2.688.169 3.804-14.188 16.385-33.184 25.49-54.838 24.377-29.216-1.502-50.172-19.159-56.4-47.681-2.345-10.739-1.261-21.591 2.89-31.903 9.324-23.167 18.761-46.288 28.166-69.423.181-.444.529-.822 1.022-1.569 2.779 8.385 5.551 16.198 7.865 24.146.528 1.812-.161 4.233-.914 6.126-5.728 14.387-11.273 28.862-17.527 43.022-9.16 20.74-2.022 38.801 8.512 48.245 13.72 12.302 35.791 14.841 52.268 5.243 6.62-3.855 12.229-9.446 19.195-14.955 2.79 2.995 6.462 6.57 9.592 10.568z"></path></svg> 